<svg xmlns="http://www.w3.org/2000/svg" viewBox="0 0 619.3 419.05"><defs><style>.cls-1{fill:#f3f3f3;}.cls-2{fill:#ffaf01;}.cls-3{fill:#eb1478;}.cls-4{fill:none;}.cls-5{fill:#bf106e;}.cls-6{fill:#fff;}.cls-7{fill:#ab005f;}.cls-8{fill:#d1d3d4;}.cls-9{fill:#c5c6c8;}.cls-10{fill:#afafaf;}.cls-11{fill:#939292;}</style></defs><title>crowdfunding-crowdsurfing_base</title><g id="Layer_2" data-name="Layer 2"><g id="Layer_1-2" data-name="Layer 1"><circle class="cls-1" cx="351.51" cy="139.67" r="139.67"/><circle class="cls-2" cx="131.2" cy="134.84" r="5.06"/><circle class="cls-2" cx="95.01" cy="262.15" r="5.58"/><circle class="cls-2" cx="424.83" cy="183.44" r="7.09"/><path class="cls-3" d="M196.84,209.56l.06-.09Z"/><path class="cls-3" d="M195.78,210.69c-.06.06-.12.13-.18.19S195.71,210.75,195.78,210.69Z"/><polygon class="cls-4" points="376.66 301.55 391 295.3 395.27 290.73 375.97 299.14 376.66 301.55"/><path class="cls-3" d="M327,116.62h0l-5.86-12.14L309.39,80,293.81,47.76a2.21,2.21,0,0,0-2.95-1l-93.31,45a2.21,2.21,0,0,0-1,2.95l5.82,12.06,27.41,56.8a2.21,2.21,0,0,0,2.95,1l42.06-20.3L326,119.57A2.21,2.21,0,0,0,327,116.62Z"/><path class="cls-5" d="M232.7,164.59l42.06-20.3L326,119.57a2.21,2.21,0,0,0,1-2.95h0l-5.86-12.14-118.83,2.28,27.41,56.8A2.21,2.21,0,0,0,232.7,164.59Z"/><circle class="cls-6" cx="278.83" cy="84.4" r="11.89" transform="translate(-2.91 158.51) rotate(-31.58)"/><path class="cls-6" d="M232.89,93.37a15.3,15.3,0,1,1-6.41,18.06A15.2,15.2,0,0,1,232.89,93.37Z"/><path class="cls-3" d="M215.37,66.23a5,5,0,0,1-4.55,3.33l-12.95.38a5,5,0,1,1-.29-9.95l12.95-.38a5,5,0,0,1,4.84,6.61Z"/><path class="cls-3" d="M221.35,50.56a5,5,0,0,1-7.67,2.35l-10.38-7.74a5,5,0,0,1,5.95-8l10.38,7.74A5,5,0,0,1,221.35,50.56Z"/><path class="cls-3" d="M235.12,42.91a5,5,0,0,1-9.64-1.05L224,29a5,5,0,0,1,9.88-1.17l1.53,12.86A5,5,0,0,1,235.12,42.91Z"/><path class="cls-6" d="M283.85,110a1.28,1.28,0,0,1,1.76.61,14.33,14.33,0,0,1-23.67,16,1.28,1.28,0,0,1,.09-1.86Z"/><path class="cls-3" d="M246.85,57A14.62,14.62,0,0,0,221,70.09a1.63,1.63,0,0,0,2.27.89l19.49-9.87,3.5-1.77A1.63,1.63,0,0,0,246.85,57Z"/><path class="cls-5" d="M223.24,71l19.49-9.87-22.41,1.69a14.56,14.56,0,0,0,.65,7.28A1.63,1.63,0,0,0,223.24,71Z"/><path class="cls-5" d="M382.61,187.31l-24.08-39.22-15.92-25.94a2.21,2.21,0,0,0-3-.73L226.12,191.07a2,2,0,0,0-.72.77s0,.07,0,.11a2.33,2.33,0,0,0-.24,1h0a2.66,2.66,0,0,0,0,.55,2.16,2.16,0,0,0,.24.65l8.61,14-24.69,15.16a4.08,4.08,0,0,1-5.3-.9l-.46-.56-10.63-13q.62-.72,1.17-1.47c.1-.14.19-.29.29-.43.26-.37.52-.75.76-1.13.1-.16.19-.32.28-.48.23-.38.45-.77.65-1.16l.23-.46c.2-.42.4-.83.58-1.26L197,202c.18-.46.36-.92.51-1.39l.11-.33c.16-.51.31-1,.43-1.53l.06-.24q.2-.84.34-1.69l0-.12c0-.06,0-.11,0-.17.09-.55.16-1.11.21-1.67,0,0,0,.08,0,.12s0-.08,0-.12h0v0h0a24.31,24.31,0,0,0-2.33-12.69,2.26,2.26,0,0,0-3.21-.91L191,182.63l-5.58,3.42a2.26,2.26,0,0,0-.92,2.76,10.86,10.86,0,0,1,.3,7.09l6.43-.48-6.43.48a10.87,10.87,0,0,1-1.69,3.4l-.06.1a10.75,10.75,0,0,1-1.15,1.27c-.07.07-.13.15-.2.21a10.91,10.91,0,0,1-15.49-.85,2.26,2.26,0,0,0-2.88-.43l-1.43.88-6.37,3.91a2.26,2.26,0,0,0-.64,3.28,24.57,24.57,0,0,0,27.05,8.46l18.72,22.91.46.56a4.08,4.08,0,0,0,5.3.9l34.49-21.17L263.4,256l2,3.25a2.21,2.21,0,0,0,3,.73l113.46-69.65A2.21,2.21,0,0,0,382.61,187.31Z"/><path class="cls-3" d="M198.52,196.72a24.37,24.37,0,0,0-2.1-14.54,2.26,2.26,0,0,0-3.21-.91L191,182.63l-5.58,3.42a2.26,2.26,0,0,0-.92,2.76,10.86,10.86,0,0,1,.3,7.09l14-1C198.69,195.48,198.62,196.1,198.52,196.72Z"/><path class="cls-7" d="M382.61,187.31l-24.08-39.22L263.4,256h0l2,3.25a2.21,2.21,0,0,0,3,.73l113.46-69.65A2.21,2.21,0,0,0,382.61,187.31Z"/><circle class="cls-1" cx="495.89" cy="333.77" r="75.14"/><path class="cls-1" d="M198.05,397.4a75.18,75.18,0,0,1-3,20.92l-144.3.31A75.15,75.15,0,1,1,198.05,397.4Z"/><path class="cls-1" d="M557.23,419.05a32.35,32.35,0,0,1,7.87-13.37c0-.17,0-.34,0-.52a32.4,32.4,0,0,0-64.79,0,32.75,32.75,0,0,0,.18,3.38,32.25,32.25,0,0,1,5.41,10.5Z"/><path class="cls-1" d="M467.18,419.05h36.32a32.12,32.12,0,0,1-3-10.5,32.24,32.24,0,0,0-36-10.91,32.06,32.06,0,0,1,2.68,21.41Z"/><path class="cls-1" d="M505.92,419.05a32.25,32.25,0,0,0-5.41-10.5,32.12,32.12,0,0,0,3,10.5Z"/><path class="cls-1" d="M602.27,419.05a32.18,32.18,0,0,1,5.82-16.33,32.3,32.3,0,0,0-43,3A32.2,32.2,0,0,1,562,419.05Z"/><path class="cls-1" d="M562,419.05a32.2,32.2,0,0,0,3.13-13.37,32.35,32.35,0,0,0-7.87,13.37Z"/><path class="cls-1" d="M619.3,419.05a32.4,32.4,0,0,0-11.22-16.33,32.18,32.18,0,0,0-5.82,16.33Z"/><path class="cls-1" d="M424,414.43a32.48,32.48,0,0,1-.37,4.63h20.24a32.44,32.44,0,0,1,20.65-21.41,32.34,32.34,0,0,0-52.18-8.09A32.32,32.32,0,0,1,424,414.43Z"/><path class="cls-1" d="M443.85,419.05h23.33a32.06,32.06,0,0,0-2.68-21.41A32.44,32.44,0,0,0,443.85,419.05Z"/><path class="cls-1" d="M375.26,419.05h28.65a32.24,32.24,0,0,1,8.41-29.5,32.35,32.35,0,0,0-46.06,4.69,32.27,32.27,0,0,1,9.12,22.5C375.38,417.52,375.32,418.29,375.26,419.05Z"/><path class="cls-1" d="M403.91,419.05h19.69a31.93,31.93,0,0,0-11.28-29.5,32.24,32.24,0,0,0-8.41,29.5Z"/><path class="cls-1" d="M359.18,414.43a32.24,32.24,0,0,1,7.08-20.18,32.37,32.37,0,0,0-55.67,22.5c0,.78.06,1.55.12,2.31h48.84A32.48,32.48,0,0,1,359.18,414.43Z"/><path class="cls-1" d="M359.55,419.05h15.71c.05-.77.12-1.53.12-2.31a32.27,32.27,0,0,0-9.12-22.5,31.75,31.75,0,0,0-6.71,24.81Z"/><path class="cls-1" d="M253.7,419.05H297a32.38,32.38,0,1,0-60.2-19.87A32.44,32.44,0,0,1,253.7,419.05Z"/><path class="cls-1" d="M208.92,419.05h32a32.2,32.2,0,0,1-4.37-16.2,32.65,32.65,0,0,1,.22-3.68,32.22,32.22,0,0,0-26.95-.61,31.95,31.95,0,0,1-.89,20.48Z"/><path class="cls-1" d="M240.91,419.05H253.7a32.44,32.44,0,0,0-16.93-19.87,32.65,32.65,0,0,0-.22,3.68A32.2,32.2,0,0,0,240.91,419.05Z"/><path class="cls-1" d="M167.12,409.8a32.36,32.36,0,0,1-1.36,9.26h25.86a32.46,32.46,0,0,1,18.2-20.48,32.36,32.36,0,0,0-54.35-13.65A32.32,32.32,0,0,1,167.12,409.8Z"/><path class="cls-1" d="M191.62,419.05h17.3a31.95,31.95,0,0,0,.89-20.48A32.46,32.46,0,0,0,191.62,419.05Z"/><path class="cls-1" d="M120.84,414.43a32.48,32.48,0,0,1-.37,4.63h28a32.22,32.22,0,0,1,7-34.13,32.35,32.35,0,0,0-46.12,4.77A32.31,32.31,0,0,1,120.84,414.43Z"/><path class="cls-1" d="M148.46,419.05h17.3a32.33,32.33,0,0,0-10.29-34.13,32.22,32.22,0,0,0-7,34.13Z"/><path class="cls-1" d="M73.8,419.05h29.89a32.26,32.26,0,0,1,5.66-29.36A32.37,32.37,0,0,0,60,399,32.4,32.4,0,0,1,73.8,419.05Z"/><path class="cls-1" d="M103.69,419.05h16.78a31.9,31.9,0,0,0-11.12-29.36,32.26,32.26,0,0,0-5.66,29.36Z"/><path class="cls-1" d="M30.23,419.05H56.42A31.68,31.68,0,0,1,60,399a32.28,32.28,0,0,0-33.94-1,32.19,32.19,0,0,1,4.55,16.5A32.48,32.48,0,0,1,30.23,419.05Z"/><path class="cls-1" d="M56.42,419.05H73.8A32.4,32.4,0,0,0,60,399a31.68,31.68,0,0,0-3.56,20.1Z"/><path class="cls-1" d="M55,397.92a32.36,32.36,0,0,0-52.6-4.39c-4.77,5.64-1.1,25.52-1.1,25.52H39.54A32.41,32.41,0,0,1,55,397.92Z"/><path class="cls-1" d="M10.54,419.05H30.23a32.48,32.48,0,0,0,.37-4.63A32.19,32.19,0,0,0,26,397.92,32.41,32.41,0,0,0,10.54,419.05Z"/><polygon class="cls-4" points="517.94 353.43 517.92 353.44 517.93 353.45 517.94 353.43"/><polygon class="cls-4" points="517.94 353.43 517.92 353.44 517.93 353.45 517.94 353.43"/><path class="cls-8" d="M603.4,373.25a2.59,2.59,0,0,0-.51-.21l-.05,0a2.6,2.6,0,0,0-3.23,1.76l-1.85,6.31-.81,2.77-.91-.38-.42-.18,3.63-12.37a2.6,2.6,0,0,0-1.77-3.23l-.06,0a2.6,2.6,0,0,0-3.23,1.76l-3.46,11.8-1.19-.5,4-13.59a2.6,2.6,0,0,0-1.77-3.23l-.06,0a2.6,2.6,0,0,0-3.23,1.77l-3.82,13-1.34-.56,3.29-11.21a2.6,2.6,0,1,0-5-1.41l-3.63,13.58-1.16,5.06-1.42-7.87a2.6,2.6,0,0,0-3-2.1l-.18,0a2.6,2.6,0,0,0-2.12,2.9l2.86,21.9-13.44,20h25.3l8.16-15.21,8.75-17.49,3-10.07A2.6,2.6,0,0,0,603.4,373.25Z"/><path class="cls-9" d="M592.91,403.84l8.75-17.49,3-10.07a2.6,2.6,0,0,0-1.25-3l-5.65,7.85-.81,2.77-.91-.38-25.61,35.56h14.33Z"/><path class="cls-10" d="M430.57,331.89a2.64,2.64,0,0,0-3-2.16h-.06a2.6,2.6,0,0,0-2.16,3l.94,5.81.57,3.53-1.44.07v0l-2-12.68a2.6,2.6,0,0,0-3-2.16h-.06a2.6,2.6,0,0,0-2.16,3l2,12.14-1.29.06-2.26-14a2.6,2.6,0,0,0-3-2.16h-.06a2.6,2.6,0,0,0-2.16,3l2.16,13.39-1.45.07-1.86-11.54a2.6,2.6,0,1,0-5.13.89l3.61,18.32.11.57-4.67-6.49a2.6,2.6,0,0,0-3.64-.59l-.15.11a2.6,2.6,0,0,0-.66,3.53l12,18.46v0l0,.09L404,419.05H429l3.17-76.78Z"/><path class="cls-11" d="M432.21,342.27l-1.64-10.38a2.6,2.6,0,0,0-2.09-2.14l-2.17,8.78.57,3.53-1.44.07v0l-19,77H429Z"/><path class="cls-10" d="M389.41,396.85l1.92-12.74,2.76-18.3a3.73,3.73,0,0,0-3-4.21l-.26-.05a3.73,3.73,0,0,0-4.38,2.93l-2.24,11.22-6.35-26.8a3.73,3.73,0,1,0-7.21,1.88l4.41,16.13-1.94.77L368.06,349a3.73,3.73,0,0,0-4.58-2.61l-.09,0a3.73,3.73,0,0,0-2.61,4.58l5.34,19.54-1.71.68-4.64-17a3.73,3.73,0,0,0-4.58-2.61l-.09,0a3.73,3.73,0,0,0-2.61,4.58L357.35,374l-1.92.76-3.57-13.06a3.73,3.73,0,0,0-4.58-2.61l-.08,0a3.73,3.73,0,0,0-2.61,4.59l4,14.49,11.57,24.22,2.11,16.68h32.82Z"/><polygon class="cls-11" points="389.41 396.85 391.33 384.11 365.98 419.05 395.11 419.05 389.41 396.85"/><polygon class="cls-4" points="336.58 353.46 361.82 326.49 340.79 331.98 336.58 353.46"/><path class="cls-8" d="M407.85,304.22a4,4,0,0,0-5.28-2.07l-22.88,10-.8-2.78,27.48-12a4,4,0,0,0,2.07-5.28v0a4,4,0,0,0-5.28-2.07L391,295.3l-14.34,6.25-.69-2.41,19.31-8.41,10.05-4.38a4.93,4.93,0,0,0,2.55-6.49h0a5,5,0,0,0-6.49-2.55l-28.17,12.27-.75-2.6,24.22-10.55a6,6,0,0,0,3.09-7.86h0a6,6,0,0,0-8-3l-39.93,18.59,4.76-15.51a6.08,6.08,0,0,0-4-7.59l-.23-.07a6.08,6.08,0,0,0-7.5,3.75l-14.2,24.76-11.54,21.89-51,107.71h55.6l12.87-65.6L340.79,332l21-5.49,10-2.61,4-1.31,6.11-2.66,23.84-10.39a4,4,0,0,0,2.07-5.28Z"/><path class="cls-9" d="M405.32,286.35a4.93,4.93,0,0,0,2.55-6.49h0a4.91,4.91,0,0,0-1-1.5l-11.58,12.37Z"/><polygon class="cls-9" points="336.58 353.46 275.2 419.05 323.71 419.05 336.58 353.46"/><path class="cls-9" d="M371.82,323.87l4-1.31,6.11-2.66,23.84-10.39a4,4,0,0,0,2.07-5.28v0a4,4,0,0,0-5.28-2.07l-22.88,10-.8-2.78,27.48-12a4,4,0,0,0,2.07-5.28v0a4,4,0,0,0-5.28-2.07L391,295.3l-29.18,31.19Z"/><path class="cls-8" d="M270,356.08a8.1,8.1,0,0,0-.85-3.46l-1.22-2.45-12-24a3.73,3.73,0,0,0-4.83-1.76l-.24.11a3.73,3.73,0,0,0-1.92,4.91l4.59,10.48L233,321.6a3.73,3.73,0,0,0-5.66.9,3.87,3.87,0,0,0,1,4.9L241,338l-1.15,1.74-14.91-12.42a3.73,3.73,0,0,0-5.25.47l-.06.07a3.72,3.72,0,0,0,.47,5.24l15.57,13-1,1.54-13.51-11.25a3.73,3.73,0,0,0-5.25.47l-.06.07a3.73,3.73,0,0,0,.47,5.25l14.17,11.8-1.14,1.72L218.92,347a3.73,3.73,0,0,0-5.25.48l-.05.06a3.72,3.72,0,0,0,.48,5.25l11.58,9.59,23.07,13.1a2,2,0,0,1,1,2.14L242,419.05h29.27Z"/><path class="cls-9" d="M270,356.08a8.1,8.1,0,0,0-.85-3.46l-1.22-2.45-21.7,68.88h25.05Z"/><path class="cls-10" d="M203.07,335.14l.07,0-.07-.17,0,0,.09-13.52.21-31.18a5.28,5.28,0,0,0-5-5.31l-.38,0a5.28,5.28,0,0,0-5.56,5l-.87,16.22L188,296.23l-10.73-26.46a5.29,5.29,0,0,0-7-2.86h0a5.29,5.29,0,0,0-2.74,7l9.45,21.77-2.56,1.47-11-25.26a5.29,5.29,0,0,0-7-2.74l-.12.05a5.29,5.29,0,0,0-2.74,7L165,302.48l-2.27,1.3-9.94-22.9a5.29,5.29,0,0,0-7-2.74l-.12.05a5.29,5.29,0,0,0-2.74,7l10.43,24-2.54,1.46L143.23,293a5.29,5.29,0,0,0-7-2.74l-.11,0a5.29,5.29,0,0,0-2.74,7L142,316.8,162.83,348l-4.75,71h48.63Z"/><polygon class="cls-11" points="203.07 335.14 203.14 335.11 203.07 334.94 203.09 334.96 203.18 321.45 163.56 419.05 206.71 419.05 203.07 335.14"/><path class="cls-8" d="M484.66,346.15l-.09,0,.06-18.67h0l.39-7.66L482.73,305a3.73,3.73,0,0,0-4.27-3.1h-.08a3.73,3.73,0,0,0-3.08,4.27l2.16,13.37-2.06.1-2.94-18.2a3.69,3.69,0,0,0-.81-1.76h0a3.71,3.71,0,0,0-3.46-1.33h-.09a3.73,3.73,0,0,0-3.08,4.27l1.9,11.78h0l.9,5.59-1.84.09-.3-1.83-2.93-18.17a3.73,3.73,0,0,0-4.27-3.08h-.09a3.73,3.73,0,0,0-3.08,4.27l3.09,19.16-2.08.1-2.66-16.5a3.73,3.73,0,1,0-7.34,1.28L450,325.12l1.47,6.43.16.82-6.68-9.29a3.73,3.73,0,0,0-5.2-.85l-.21.15a3.73,3.73,0,0,0-.95,5.06l16.16,24.87.66,1,2.4,12.84,9.88,52.89h36.77Z"/><path class="cls-9" d="M504.43,419.05l-19.77-72.9-.09,0,.06-18.67h0l.39-7.66L482.73,305a3.73,3.73,0,0,0-4.27-3.1h-.08a3.73,3.73,0,0,0-3.08,4.27l2.16,13.37-2.06.1-2.94-18.2a3.69,3.69,0,0,0-.81-1.76l-4.74,14.74.9,5.59-1.84.09-.3-1.83-10.94,34,.66,1,2.4,12.84,38,52.89Z"/><polygon class="cls-10" points="495.8 419.05 457.78 366.16 467.66 419.05 495.8 419.05"/><path class="cls-10" d="M569,328.81l-.1-.06A3.71,3.71,0,0,0,563.8,330l-7.07,11.57-1.63-1.27,9.63-15.75a3.71,3.71,0,0,0-1.23-5.09l-.11-.07c-.08,0-.16-.08-.24-.12a3.7,3.7,0,0,0-4.85,1.35l-9.18,15-1.46-1.13,10.57-17.3a3.71,3.71,0,0,0-1.23-5.09l-.11-.07a3.71,3.71,0,0,0-5.09,1.23l-10.13,16.58L540,328.55l8.73-14.28a3.71,3.71,0,0,0-1.23-5.09h0a3.71,3.71,0,0,0-5.16,1.33l-13.57,23.95,1-11.26a3.86,3.86,0,0,0-7.67-.84l-4.14,31.09,0,0v0h0l0,.08.05,0,1,49.15.14,6.72,8.18,9.62H551.8l-8-51.48,18.53-20.84,7.89-12.82A3.71,3.71,0,0,0,569,328.81Z"/><path class="cls-11" d="M569,328.81l-.1-.06A3.71,3.71,0,0,0,563.8,330l-7.07,11.57-1.63-1.27,9.63-15.75a3.71,3.71,0,0,0-1.23-5.09l-.11-.07c-.08,0-.16-.08-.24-.12l-44.19,83.46.14,6.72,8.18,9.62H551.8l-8-51.48,18.53-20.84,7.89-12.82A3.71,3.71,0,0,0,569,328.81Z"/><polygon class="cls-11" points="519.29 419.05 527.26 419.05 519.09 409.43 519.29 419.05"/><path class="cls-10" d="M144.49,343.5l-.07,0a3.73,3.73,0,0,0-4.84,2.07l-5,12.57-1.82-1L139.58,340a3.73,3.73,0,0,0-2.07-4.84l-.09,0a3.73,3.73,0,0,0-4.84,2.07L126,353.54l-1.62-.87,7.53-18.8a3.73,3.73,0,0,0-2.07-4.84l-.09,0a3.73,3.73,0,0,0-4.84,2.07l-7.22,18-1.84-1,6.22-15.52a3.73,3.73,0,1,0-6.95-2.69l-7,18.85L106.08,355l-.29.79-.94-11.4a3.73,3.73,0,0,0-4-3.41l-.26,0a3.73,3.73,0,0,0-3.42,3.85l1.09,30.85L84,407.92,82.67,411l9.6,8.06h24.25L127,384.62l-.09,0,2.75-4.54,6.92-11.43,0,0,4.28-6.36,5.63-13.93A3.73,3.73,0,0,0,144.49,343.5Z"/><polygon class="cls-11" points="129.69 380.05 84.02 407.92 82.67 410.99 92.27 419.05 116.52 419.05 127.03 384.62 126.94 384.59 129.69 380.05"/><polygon class="cls-11" points="79.11 419.05 92.27 419.05 82.67 410.99 79.11 419.05"/><path class="cls-8" d="M58.16,396.72l12-18.46a2.6,2.6,0,0,0-.66-3.53l-.15-.11a2.6,2.6,0,0,0-3.64.59L61,381.71l.11-.57,3.61-18.32a2.6,2.6,0,1,0-5.13-.89l-1.86,11.54-1.46-.07L58.47,360a2.6,2.6,0,0,0-2.16-3h-.06a2.6,2.6,0,0,0-3,2.16l-2.26,14-1.29-.06,2-12.14a2.6,2.6,0,0,0-2.16-3h-.06a2.6,2.6,0,0,0-3,2.16l-2.05,12.72L43,372.76l1.51-9.35a2.6,2.6,0,0,0-2.16-3h-.06a2.6,2.6,0,0,0-3,2.16L37.65,373l1.64,39.63.19-.12,21.91,6.47-2.64-18-.6-4.12,0-.09Z"/><polygon class="cls-9" points="58.74 400.92 39.47 412.48 61.38 418.95 58.74 400.92"/><polygon class="cls-10" points="39.55 419.05 61.4 419.05 61.38 418.95 39.47 412.48 39.28 412.59 39.55 419.05"/></g></g></svg>