<svg id="Layer_1" data-name="Layer 1" xmlns="http://www.w3.org/2000/svg" xmlns:xlink="http://www.w3.org/1999/xlink" viewBox="0 0 646 434"><defs><style>.cls-1{fill:none;}.cls-2{fill:#f3f3f3;}.cls-3{fill:#ffaf01;}.cls-4{fill:#eb1478;}.cls-5{fill:#bf106e;}.cls-6{fill:#fff;}.cls-7{fill:#ab005f;}.cls-8{clip-path:url(#clip-path);}.cls-9{fill:#d1d3d4;}.cls-10{fill:#c5c6c8;}.cls-11{fill:#afafaf;}.cls-12{fill:#939292;}</style><clipPath id="clip-path"><ellipse class="cls-1" cx="329" cy="292.5358" rx="475" ry="130.5427"/></clipPath></defs><title>imageArtboard 29</title><circle class="cls-2" cx="366.1786" cy="143.9566" r="139.6693"/><circle class="cls-3" cx="145.8687" cy="139.1231" r="5.0626"/><circle class="cls-3" cx="109.6813" cy="266.4348" r="5.578"/><circle class="cls-3" cx="439.4993" cy="187.724" r="7.0876"/><path class="cls-4" d="M211.5055,213.8434c.0227-.0288.0386-.0612.06-.09C211.544,213.7821,211.5282,213.8147,211.5055,213.8434Z"/><path class="cls-4" d="M210.4445,214.9813c-.0648.06-.1157.1315-.1829.19C210.3288,215.1126,210.38,215.042,210.4445,214.9813Z"/><polygon class="cls-1" points="391.326 305.833 405.663 299.588 409.941 295.016 390.634 303.427 391.326 305.833"/><path class="cls-4" d="M341.7026,120.906h-.0007l-5.8586-12.1421L324.0566,84.3366,308.4741,52.0427a2.2079,2.2079,0,0,0-2.9478-1.0293l-93.3057,45.022a2.2084,2.2084,0,0,0-1.0293,2.9482l5.82,12.061,27.4082,56.8022a2.2079,2.2079,0,0,0,2.948,1.0288l42.0637-20.2964,51.2424-24.7256A2.2088,2.2088,0,0,0,341.7026,120.906Z"/><path class="cls-5" d="M247.3671,168.8756l42.0639-20.2965,51.2423-24.7253a2.2088,2.2088,0,0,0,1.0292-2.9477l-.0005,0-5.8587-12.1421-118.8323,2.2809,27.4082,56.802A2.2076,2.2076,0,0,0,247.3671,168.8756Z"/><circle class="cls-6" cx="293.4964" cy="88.6862" r="11.893" transform="translate(-2.9834 166.8214) rotate(-31.5775)"/><path class="cls-6" d="M247.5526,97.6591a15.3,15.3,0,1,1-6.4144,18.06A15.1973,15.1973,0,0,1,247.5526,97.6591Z"/><path class="cls-4" d="M230.04,70.52a4.9778,4.9778,0,0,1-4.5535,3.3329l-12.9463.3782a4.9758,4.9758,0,0,1-.2911-9.9474l12.9463-.3782A4.9792,4.9792,0,0,1,230.04,70.52Z"/><path class="cls-4" d="M236.0192,54.8455a4.98,4.98,0,0,1-7.6733,2.3488l-10.3843-7.741a4.9758,4.9758,0,0,1,5.9481-7.9784l10.3843,7.741A4.9783,4.9783,0,0,1,236.0192,54.8455Z"/><path class="cls-4" d="M249.7872,47.1981a4.9764,4.9764,0,0,1-9.64-1.0516L238.62,33.2849a4.9755,4.9755,0,1,1,9.8817-1.1726l1.5264,12.8616A4.9491,4.9491,0,0,1,249.7872,47.1981Z"/><path class="cls-6" d="M298.5205,114.3218a1.2829,1.2829,0,0,1,1.7581.6085,14.3335,14.3335,0,0,1-23.6743,16.0269,1.2829,1.2829,0,0,1,.0881-1.8584Z"/><path class="cls-4" d="M261.5212,61.2712a14.6242,14.6242,0,0,0-25.884,13.1035,1.6322,1.6322,0,0,0,2.27.8945l19.489-9.8677,3.501-1.7725A1.6324,1.6324,0,0,0,261.5212,61.2712Z"/><path class="cls-5" d="M237.9075,75.2692l19.4889-9.8676-22.4071,1.6912a14.5639,14.5639,0,0,0,.6481,7.2819A1.6321,1.6321,0,0,0,237.9075,75.2692Z"/><path class="cls-5" d="M397.28,191.5964l-24.0779-39.2217-15.9238-25.94a2.2082,2.2082,0,0,0-3.0366-.7266l-113.458,69.65a2.0487,2.0487,0,0,0-.7185.7671c-.0208.0342-.031.0728-.05.1079a2.3305,2.3305,0,0,0-.2437.959l0,.002a2.66,2.66,0,0,0,.0476.5508,2.1609,2.1609,0,0,0,.2383.65l8.6074,14.0215-24.69,15.1572a4.0837,4.0837,0,0,1-5.3-.8975l-.46-.5635-10.6279-13.0117q.6152-.7156,1.1665-1.4731c.103-.14.1946-.2871.2942-.43.26-.3721.5183-.7461.7566-1.1309.0979-.1572.1853-.32.2793-.4785.2256-.3838.4482-.77.6519-1.1646.0793-.1523.1506-.3081.2266-.4624.2036-.415.4-.833.58-1.2583.0579-.1357.1108-.2734.1658-.4106.1838-.4575.3572-.9189.5129-1.3857.0364-.11.0718-.22.1072-.3306.1606-.5054.3071-1.0156.4348-1.53.02-.08.04-.1582.0586-.2378q.2-.8386.343-1.69c.0063-.0391.0134-.0781.02-.1167.0088-.0557.0122-.1118.0208-.1675.0854-.5522.1577-1.1074.2058-1.665-.0034.0405-.0112.08-.0149.1206.0037-.0405.0115-.08.0149-.1211v0l.0027-.021h-.0015a24.3055,24.3055,0,0,0-2.3279-12.6885,2.2587,2.2587,0,0,0-3.2146-.9136l-2.2273,1.3672-5.5784,3.4243a2.2611,2.2611,0,0,0-.9224,2.7607,10.862,10.862,0,0,1,.2976,7.0869l6.4272-.4771-6.4272.4771a10.87,10.87,0,0,1-1.686,3.4043c-.0234.0327-.0405.0684-.0649.1006a10.7483,10.7483,0,0,1-1.15,1.272c-.07.0679-.1255.1465-.1985.2129a10.9125,10.9125,0,0,1-15.4866-.85,2.2614,2.2614,0,0,0-2.8789-.4272l-1.4312.8789-6.3745,3.9136a2.2584,2.2584,0,0,0-.64,3.28,24.5672,24.5672,0,0,0,27.0527,8.458l18.7166,22.9146.4609.564a4.0835,4.0835,0,0,0,5.3.897l34.4912-21.1738,22.5134,36.6733,1.9963,3.2524a2.2077,2.2077,0,0,0,3.0366.7261l113.458-69.65A2.2075,2.2075,0,0,0,397.28,191.5964Z"/><path class="cls-4" d="M213.184,201.0029a24.369,24.369,0,0,0-2.1-14.5415,2.2586,2.2586,0,0,0-3.2144-.9139l-2.2275,1.3673-5.5784,3.4246a2.2606,2.2606,0,0,0-.9222,2.76,10.8636,10.8636,0,0,1,.2977,7.0868l13.9743-1.037C213.3607,199.7706,213.283,200.3886,213.184,201.0029Z"/><path class="cls-7" d="M397.28,191.5964l-24.0779-39.2218-95.1393,107.93h0l1.9963,3.2523a2.208,2.208,0,0,0,3.0366.7265l113.458-69.6507A2.2074,2.2074,0,0,0,397.28,191.5964Z"/><g class="cls-8"><circle class="cls-2" cx="510.5531" cy="338.0612" r="75.1443"/><path class="cls-2" d="M212.7182,401.6871a75.18,75.18,0,0,1-2.9512,20.9224L65.47,422.9168a75.1531,75.1531,0,1,1,147.2479-21.23Z"/><path class="cls-2" d="M571.897,423.3405a32.3451,32.3451,0,0,1,7.87-13.3663c.0027-.174.0261-.3429.0261-.5175a32.3955,32.3955,0,1,0-64.7911,0,32.7461,32.7461,0,0,0,.1775,3.38,32.248,32.248,0,0,1,5.405,10.5038Z"/><path class="cls-2" d="M481.8426,423.3405h36.3193a32.1155,32.1155,0,0,1-2.9819-10.5038,32.2375,32.2375,0,0,0-36.0135-10.9055,32.0648,32.0648,0,0,1,2.6761,21.4093Z"/><path class="cls-2" d="M520.585,423.3405a32.248,32.248,0,0,0-5.405-10.5038,32.1155,32.1155,0,0,0,2.9819,10.5038Z"/><path class="cls-2" d="M616.9338,423.3405a32.1845,32.1845,0,0,1,5.8156-16.3334,32.3005,32.3005,0,0,0-42.982,2.967,32.1962,32.1962,0,0,1-3.1333,13.3663Z"/><path class="cls-2" d="M576.6342,423.3405a32.1962,32.1962,0,0,0,3.1333-13.3663,32.3451,32.3451,0,0,0-7.87,13.3663Z"/><path class="cls-2" d="M633.9694,423.3405a32.4,32.4,0,0,0-11.22-16.3334,32.1845,32.1845,0,0,0-5.8156,16.3334Z"/><path class="cls-2" d="M438.6415,418.7126a32.4835,32.4835,0,0,1-.3681,4.6279h20.2392a32.4386,32.4386,0,0,1,20.6538-21.4093,32.3408,32.3408,0,0,0-52.1775-8.0927A32.32,32.32,0,0,1,438.6415,418.7126Z"/><path class="cls-2" d="M458.5126,423.3405h23.33a32.0648,32.0648,0,0,0-2.6761-21.4093A32.4386,32.4386,0,0,0,458.5126,423.3405Z"/><path class="cls-2" d="M389.9314,423.3405H418.58a32.2382,32.2382,0,0,1,8.4088-29.502,32.3516,32.3516,0,0,0-46.057,4.69,32.2655,32.2655,0,0,1,9.1163,22.4976C390.0482,421.8079,389.9858,422.5733,389.9314,423.3405Z"/><path class="cls-2" d="M418.58,423.3405h19.6933a31.9263,31.9263,0,0,0-11.2845-29.502,32.2382,32.2382,0,0,0-8.4088,29.502Z"/><path class="cls-2" d="M373.85,418.7126a32.2352,32.2352,0,0,1,7.0814-20.1837,32.3744,32.3744,0,0,0-55.6748,22.4976c0,.7813.0624,1.5468.1168,2.314h48.8446A32.4835,32.4835,0,0,1,373.85,418.7126Z"/><path class="cls-2" d="M374.2185,423.3405h15.7129c.0544-.7672.1168-1.5327.1168-2.314a32.2655,32.2655,0,0,0-9.1163-22.4976,31.7463,31.7463,0,0,0-6.7134,24.8116Z"/><path class="cls-2" d="M268.3625,423.3405h43.2694a32.3793,32.3793,0,1,0-60.1992-19.8729A32.4393,32.4393,0,0,1,268.3625,423.3405Z"/><path class="cls-2" d="M223.5914,423.3405H255.58a32.2042,32.2042,0,0,1-4.3693-16.1978,32.6457,32.6457,0,0,1,.2226-3.6752,32.2173,32.2173,0,0,0-26.9473-.61,31.9476,31.9476,0,0,1-.894,20.4828Z"/><path class="cls-2" d="M255.58,423.3405h12.783a32.4393,32.4393,0,0,0-16.93-19.8729,32.6457,32.6457,0,0,0-.2226,3.6752A32.2042,32.2042,0,0,0,255.58,423.3405Z"/><path class="cls-2" d="M181.7911,414.0847a32.3625,32.3625,0,0,1-1.3594,9.2559H206.29a32.4618,32.4618,0,0,1,18.1952-20.4828,32.3553,32.3553,0,0,0-54.3469-13.6471A32.32,32.32,0,0,1,181.7911,414.0847Z"/><path class="cls-2" d="M206.29,423.3405h17.3012a31.9476,31.9476,0,0,0,.894-20.4828A32.4618,32.4618,0,0,0,206.29,423.3405Z"/><path class="cls-2" d="M135.5118,418.7126a32.4835,32.4835,0,0,1-.3681,4.6279h27.9868a32.2235,32.2235,0,0,1,7.008-34.13,32.3474,32.3474,0,0,0-46.1193,4.7734A32.31,32.31,0,0,1,135.5118,418.7126Z"/><path class="cls-2" d="M163.1305,423.3405h17.3012a32.3309,32.3309,0,0,0-10.2932-34.13,32.2235,32.2235,0,0,0-7.008,34.13Z"/><path class="cls-2" d="M88.4681,423.3405h29.8913a32.261,32.261,0,0,1,5.66-29.3565,32.3749,32.3749,0,0,0-49.3685,9.2539A32.4047,32.4047,0,0,1,88.4681,423.3405Z"/><path class="cls-2" d="M118.3594,423.3405h16.7843a31.9025,31.9025,0,0,0-11.1245-29.3565,32.261,32.261,0,0,0-5.66,29.3565Z"/><path class="cls-2" d="M44.899,423.3405h26.19a31.6806,31.6806,0,0,1,3.5619-20.1026,32.2771,32.2771,0,0,0-33.9374-1.0268,32.195,32.195,0,0,1,4.5538,16.5014A32.4835,32.4835,0,0,1,44.899,423.3405Z"/><path class="cls-2" d="M71.0888,423.3405H88.4681a32.4047,32.4047,0,0,0-13.8174-20.1026,31.6806,31.6806,0,0,0-3.5619,20.1026Z"/><path class="cls-2" d="M69.7133,401.4965a32.3615,32.3615,0,0,0-52.6-4.3926c-4.7651,5.6406-1.1012,25.5219-1.1012,25.5219H54.2057A32.41,32.41,0,0,1,69.7133,401.4965Z"/><path class="cls-2" d="M25.2057,423.3405H44.899a32.4835,32.4835,0,0,0,.3681-4.6279,32.195,32.195,0,0,0-4.5538-16.5014A32.41,32.41,0,0,0,25.2057,423.3405Z"/><polygon class="cls-1" points="532.606 357.715 532.588 357.732 532.595 357.735 532.606 357.715"/><polygon class="cls-1" points="532.606 357.715 532.588 357.732 532.595 357.735 532.606 357.715"/><path class="cls-9" d="M618.063,364.8249a2.5911,2.5911,0,0,0-.511-.2134l-.054-.0156a2.6049,2.6049,0,0,0-3.2327,1.7646l-1.8533,6.3125-.8137,2.771-.907-.3813-.4236-.1782,3.6316-12.3672a2.6041,2.6041,0,0,0-1.7654-3.2324l-.0618-.0181a2.6038,2.6038,0,0,0-3.2324,1.7646l-3.4641,11.7964-1.1875-.5,3.989-13.5859a2.6045,2.6045,0,0,0-1.7651-3.2329l-.062-.0181a2.6044,2.6044,0,0,0-3.2327,1.7651l-3.821,13.0151-1.343-.5649,3.2927-11.2124a2.6044,2.6044,0,1,0-5.0149-1.4062l-3.6306,13.5835-1.1584,5.062-1.4153-7.8711a2.6041,2.6041,0,0,0-3.0237-2.1025l-.1814.0327a2.605,2.605,0,0,0-2.1218,2.9028l2.8562,21.9028-13.439,20.0273h25.2991l8.1584-15.2144,8.7485-17.4888,2.9917-10.0708A2.6034,2.6034,0,0,0,618.063,364.8249Z"/><path class="cls-10" d="M607.5746,395.4114l8.7487-17.4887,2.9916-10.0708a2.6032,2.6032,0,0,0-1.2518-3.0269l-5.651,7.8484-.8136,2.7707-.9068-.3813-25.6054,35.5631h14.33Z"/><path class="cls-11" d="M445.2351,336.1789a2.6383,2.6383,0,0,0-2.9873-2.1641l-.0557.0088a2.6047,2.6047,0,0,0-2.156,2.9863l.938,5.811.571,3.5347-1.4421.0688-.0073-.0483L438.0488,333.7a2.6039,2.6039,0,0,0-2.9861-2.1558l-.0637.01a2.6042,2.6042,0,0,0-2.156,2.9858l1.9595,12.1377-1.2874.061-2.2566-13.979a2.6044,2.6044,0,0,0-2.9861-2.1558l-.0637.01a2.6045,2.6045,0,0,0-2.156,2.9863l2.1619,13.3911-1.4548.0693-1.8623-11.5371a2.6046,2.6046,0,1,0-5.1316.8931l3.6064,18.3159.11.5728-4.67-6.4922a2.6045,2.6045,0,0,0-3.635-.5937l-.1494.1079a2.6041,2.6041,0,0,0-.6631,3.5337L426.3638,370.32l.0022-.0171.0173.0913-7.75,52.9468H443.707l3.17-76.7847Z"/><path class="cls-12" d="M446.8769,346.5557l-1.6417-10.3768a2.5975,2.5975,0,0,0-2.089-2.1426l-2.172,8.7848.571,3.5344-1.442.069-.0075-.0483-19.025,76.9644H443.707Z"/><path class="cls-11" d="M404.08,401.1374l1.9214-12.7422L408.76,370.1a3.7264,3.7264,0,0,0-2.9558-4.2095l-.2593-.0513a3.7256,3.7256,0,0,0-4.3821,2.9253l-2.2373,11.22-6.3452-26.8a3.7259,3.7259,0,1,0-7.2114,1.8755l4.4063,16.1279-1.9358.771-5.1143-18.72a3.7256,3.7256,0,0,0-4.5762-2.6118l-.0889.0239a3.7263,3.7263,0,0,0-2.6123,4.5762l5.3389,19.541-1.7126.6826-4.636-16.9668a3.7252,3.7252,0,0,0-4.5759-2.6118l-.0884.0239a3.7254,3.7254,0,0,0-2.6123,4.5762l4.8594,17.7881-1.9182.7642-3.57-13.0645a3.7259,3.7259,0,0,0-4.5759-2.6123l-.0776.021a3.7267,3.7267,0,0,0-2.6091,4.5879l4.0066,14.4858,11.5688,24.2217,2.1062,16.6758h32.8215Z"/><polygon class="cls-12" points="404.08 401.138 406.001 388.395 380.648 423.341 409.773 423.341 404.08 401.138"/><polygon class="cls-1" points="351.245 357.745 376.483 330.773 355.46 336.264 351.245 357.745"/><path class="cls-9" d="M422.52,308.51a4.01,4.01,0,0,0-5.2776-2.0742l-22.8757,9.9653-.7993-2.7773,27.4807-11.9717a4.01,4.01,0,0,0,2.0747-5.2773l-.0071-.0161a4.01,4.01,0,0,0-5.2771-2.0747l-12.175,5.3037-14.3372,6.2456-.6921-2.4062,19.3069-8.4106,10.0508-4.3784a4.9344,4.9344,0,0,0,2.5535-6.4946v0a4.9725,4.9725,0,0,0-6.4949-2.5527l-28.1682,12.2715-.7478-2.5977,24.2244-10.5532a5.9739,5.9739,0,0,0,3.0908-7.8628l-.0034-.0068a5.9732,5.9732,0,0,0-7.998-3.03l-39.9258,18.59,4.76-15.5137a6.0757,6.0757,0,0,0-4.0259-7.59l-.2251-.0693a6.0756,6.0756,0,0,0-7.5,3.7544L345.335,293.738l-11.542,21.8931L282.772,423.3405h55.6023l12.8711-65.5962,4.2148-21.48,21.0229-5.4912,10.0063-2.6138,4.0115-1.3071,6.1069-2.6606,23.8447-10.3877a4.0094,4.0094,0,0,0,2.0745-5.2769Z"/><path class="cls-10" d="M419.9919,290.6377a4.9343,4.9343,0,0,0,2.5534-6.4946v0a4.9062,4.9062,0,0,0-1.029-1.4971l-11.5753,12.3707Z"/><polygon class="cls-10" points="351.245 357.745 289.866 423.341 338.374 423.341 351.245 357.745"/><path class="cls-10" d="M386.49,328.159l4.0114-1.3074,6.1069-2.66,23.8447-10.3877a4.01,4.01,0,0,0,2.0745-5.2772l-.007-.0163a4.01,4.01,0,0,0-5.2777-2.0745l-22.8757,9.9655-.7992-2.7775,27.4806-11.9718a4.01,4.01,0,0,0,2.0745-5.2772l-.007-.0163a4.01,4.01,0,0,0-5.2772-2.0745l-12.1752,5.3037-29.18,31.185Z"/><path class="cls-9" d="M284.6208,360.3635a8.1,8.1,0,0,0-.8528-3.4565l-1.2222-2.4473L270.572,330.4934a3.7267,3.7267,0,0,0-4.8337-1.7593l-.2415.106a3.7264,3.7264,0,0,0-1.9182,4.9082l4.5906,10.4795-20.5469-18.3394a3.7281,3.7281,0,0,0-5.6558.8955,3.8683,3.8683,0,0,0,.9749,4.9023l12.689,10.5688-1.146,1.74L239.5781,331.58a3.7312,3.7312,0,0,0-5.252.4746l-.0591.07a3.7194,3.7194,0,0,0,.4736,5.2437l15.57,12.9683-1.0139,1.54-13.51-11.252a3.7321,3.7321,0,0,0-5.2527.4746l-.0552.0659a3.7261,3.7261,0,0,0,.4746,5.252l14.1689,11.8018-1.135,1.7246L233.5859,351.28a3.7311,3.7311,0,0,0-5.2515.4751l-.0515.0615a3.72,3.72,0,0,0,.4832,5.2515l11.5828,9.5859,23.0728,13.0952a2.0251,2.0251,0,0,1,.99,2.1353l-7.7871,41.4561h29.27Z"/><path class="cls-10" d="M284.6209,360.3634a8.1,8.1,0,0,0-.8527-3.4563l-1.2223-2.4474-21.7021,68.8808h25.0515Z"/><path class="cls-11" d="M217.7361,339.423l.07-.0264-.07-.1748.022.0273.09-13.5156.2065-31.1841a5.2843,5.2843,0,0,0-5.0007-5.313l-.3787-.0205a5.2845,5.2845,0,0,0-5.5615,4.9937l-.873,16.2153-3.6069-9.9077-10.7275-26.4561a5.2859,5.2859,0,0,0-7.0034-2.8618l-.0044.002a5.2854,5.2854,0,0,0-2.7429,6.9531l9.4519,21.7651-2.563,1.4746-10.9712-25.2632a5.2851,5.2851,0,0,0-6.9531-2.7422l-.1243.0537a5.2855,5.2855,0,0,0-2.7424,6.9536l11.4521,26.3716-2.2676,1.3047-9.9436-22.8975a5.2855,5.2855,0,0,0-6.9531-2.7422l-.1248.0537a5.2856,5.2856,0,0,0-2.7427,6.9536l10.4253,24.0054-2.54,1.4614-7.657-17.6313a5.2855,5.2855,0,0,0-6.9534-2.7427l-.1091.0474a5.2861,5.2861,0,0,0-2.7361,6.9688l8.5591,19.54,20.8386,31.2021-4.7532,71.05h48.6277Z"/><polygon class="cls-12" points="217.736 339.423 217.806 339.397 217.736 339.222 217.758 339.249 217.848 325.734 178.225 423.341 221.375 423.341 217.736 339.423"/><path class="cls-9" d="M499.3267,350.4392l-.0889.021.0615-18.6655.05.0034.3921-7.6582-2.3484-14.8452a3.7263,3.7263,0,0,0-4.2744-3.0957l-.0793.0122a3.726,3.726,0,0,0-3.084,4.2725l2.158,13.37-2.0623.0981-2.9385-18.2041a3.6921,3.6921,0,0,0-.8093-1.7593h0a3.71,3.71,0,0,0-3.4629-1.3252l-.0911.0146a3.7266,3.7266,0,0,0-3.085,4.2725l1.9016,11.7769h0l.9021,5.5864-1.842.0879-.2957-1.8306-2.9326-18.168a3.7265,3.7265,0,0,0-4.2725-3.0845l-.0911.0146a3.7266,3.7266,0,0,0-3.0842,4.2725l3.0928,19.1572-2.0815.0991-2.6648-16.5049a3.7256,3.7256,0,1,0-7.34,1.2778l3.6907,19.7734,1.4675,6.4268.158.8223-6.68-9.2876a3.7263,3.7263,0,0,0-5.2007-.8491l-.2136.1538a3.7262,3.7262,0,0,0-.9487,5.0557l16.1646,24.8667.6606,1.0161,2.3975,12.8359,9.88,52.8916h36.7651Z"/><path class="cls-10" d="M519.0961,423.3405l-19.77-72.9013-.0889.0208.0616-18.6654.05.0035.3921-7.6582-2.3483-14.8452a3.7264,3.7264,0,0,0-4.2744-3.0959l-.0793.0126a3.726,3.726,0,0,0-3.0842,4.2724l2.1581,13.37-2.0622.0984-2.9385-18.2041a3.69,3.69,0,0,0-.8094-1.7592l-4.7372,14.7387.902,5.5862-1.8421.0878-.2957-1.83-10.9368,34.0259.66,1.0157,2.3975,12.8362,38.0162,52.8916Z"/><polygon class="cls-11" points="510.467 423.341 472.451 370.449 482.331 423.341 510.467 423.341"/><path class="cls-11" d="M583.6616,333.1l-.103-.063a3.7058,3.7058,0,0,0-5.0945,1.229L571.39,345.8391l-1.63-1.2681,9.6272-15.75a3.7059,3.7059,0,0,0-1.2295-5.0947l-.1128-.0688c-.0784-.0483-.1631-.0757-.2439-.1177a3.6952,3.6952,0,0,0-4.8508,1.3467L563.7676,339.91l-1.4553-1.1318,10.5747-17.3013a3.7057,3.7057,0,0,0-1.2288-5.0947l-.113-.0688a3.7062,3.7062,0,0,0-5.095,1.229L556.32,334.1174l-1.645-1.28,8.73-14.2817a3.7062,3.7062,0,0,0-1.23-5.0947l-.0071-.0039a3.7057,3.7057,0,0,0-5.1567,1.3345l-13.573,23.95.9619-11.2646a3.8613,3.8613,0,0,0-7.6748-.8384l-4.1372,31.0938.0181-.0166-.0112.02-.0068-.0029,0,.0142-.0481.0845.05.0273,1.0237,49.1465.14,6.7163,8.1768,9.62h24.5352l-8.0049-51.481,18.5344-20.8389,7.8889-12.8164A3.7056,3.7056,0,0,0,583.6616,333.1Z"/><path class="cls-12" d="M583.6615,333.1l-.1028-.0627a3.7056,3.7056,0,0,0-5.0945,1.229L571.39,345.8388l-1.63-1.2676,9.6271-15.7509a3.7059,3.7059,0,0,0-1.2293-5.0947l-.113-.0688c-.0782-.0481-.1628-.0757-.2437-.1173l-44.1874,83.465.14,6.7166,8.1766,9.6194h24.5351L558.4611,371.86l18.5343-20.8392,7.889-12.8162A3.7057,3.7057,0,0,0,583.6615,333.1Z"/><polygon class="cls-12" points="533.954 423.341 541.931 423.341 533.754 413.721 533.954 423.341"/><path class="cls-11" d="M159.1592,347.79l-.075-.03a3.7262,3.7262,0,0,0-4.8442,2.0732l-5.0369,12.5718-1.8184-.978,6.8584-17.1172a3.7265,3.7265,0,0,0-2.073-4.8447l-.0857-.0342a3.7265,3.7265,0,0,0-4.845,2.0732l-6.5408,16.3267-1.624-.8735,7.5339-18.8042a3.7262,3.7262,0,0,0-2.0735-4.8447l-.0852-.0342a3.7265,3.7265,0,0,0-4.8445,2.0732l-7.2166,18.0137-1.8352-.9868,6.2173-15.52a3.7258,3.7258,0,1,0-6.95-2.686l-7.0217,18.8491-2.0527,6.2651-.2876.7861-.9421-11.4019a3.7265,3.7265,0,0,0-4.0205-3.4067l-.2625.0215a3.7267,3.7267,0,0,0-3.417,3.8452l1.09,30.8511L98.69,412.2023l-1.3562,3.0737,9.6,8.0645H131.187l10.5049-34.4321-.0862-.0278,2.75-4.5415,6.9172-11.4258.0413.0288,4.2808-6.3623,5.6335-13.9341A3.7262,3.7262,0,0,0,159.1592,347.79Z"/><polygon class="cls-12" points="144.355 384.339 98.69 412.202 97.334 415.276 106.935 423.341 131.187 423.341 141.692 388.908 141.606 388.88 144.355 384.339"/><polygon class="cls-12" points="93.776 423.341 106.935 423.341 97.334 415.276 93.776 423.341"/><path class="cls-9" d="M72.8252,386.2951l11.9985-18.4585a2.6049,2.6049,0,0,0-.6626-3.5337l-.15-.1079a2.6046,2.6046,0,0,0-3.635.5938l-4.67,6.4922.11-.5732,3.606-18.3154A2.6042,2.6042,0,1,0,74.292,351.5l-1.8625,11.5366-1.4553-.0693,2.1619-13.3911A2.604,2.604,0,0,0,70.98,346.59l-.0642-.0107a2.6044,2.6044,0,0,0-2.9856,2.1563l-2.2573,13.9785-1.2871-.0615,1.9595-12.1367a2.6049,2.6049,0,0,0-2.156-2.9863l-.0637-.01a2.6048,2.6048,0,0,0-2.9863,2.1563L59.0854,362.4l-1.4414-.0688,1.5083-9.3457A2.6037,2.6037,0,0,0,56.9971,350l-.0557-.0093a2.6041,2.6041,0,0,0-2.9873,2.1641L52.3123,362.531l1.636,39.6338.1929-.1157,21.9077,6.4727-2.64-18.0327-.6033-4.12.0178-.0908Z"/><polygon class="cls-10" points="73.409 390.489 54.141 402.049 76.049 408.522 73.409 390.489"/><polygon class="cls-11" points="54.215 408.626 76.064 408.626 76.049 408.522 54.141 402.049 53.948 402.165 54.215 408.626"/></g></svg>