<?xml version="1.0" encoding="utf-8"?>
<!-- Generator: Adobe Illustrator 21.1.0, SVG Export Plug-In . SVG Version: 6.00 Build 0)  -->
<svg version="1.1" id="Layer_1" xmlns="http://www.w3.org/2000/svg" xmlns:xlink="http://www.w3.org/1999/xlink" x="0px" y="0px"
	 viewBox="0 0 646 434" style="enable-background:new 0 0 646 434;" xml:space="preserve">
<style type="text/css">
	.st0{fill:#F3F3F3;}
	.st1{fill:#C5C6C8;}
	.st2{fill:#D1D3D4;}
	.st3{fill:#AFAFAF;}
	.st4{fill:#E3E4E5;}
	.st5{fill:#FFFFFF;}
	.st6{fill:#FFAF01;}
	.st7{fill:#939292;}
	.st8{fill:#EB1478;}
	.st9{fill:#BF106E;}
	.st10{fill:#AB005F;}
</style>
<circle class="st0" cx="473.6835" cy="229.0695" r="142.86069"/>
<circle class="st0" cx="73.5" cy="278.5" r="40.5"/>
<path class="st1" d="M105.911,205.86317l6.16425,11.87196c0.509,0.9803,0.12693,2.18762-0.85337,2.69661l-25.36626,13.17088
	c-0.9803,0.509-2.18762,0.12694-2.69662-0.85336l-6.16425-11.87196c-0.509-0.9803-0.12693-2.18762,0.85337-2.69662
	l25.36626-13.17087C104.19468,204.50081,105.402,204.88287,105.911,205.86317z"/>
<path class="st1" d="M166.43727,231.68958l-10.89285,7.76445c-0.89946,0.64114-2.14836,0.43173-2.78949-0.46773l-16.58998-23.27428
	c-0.64113-0.89944-0.43172-2.14835,0.46773-2.78947l10.89285-7.76447c0.89946-0.64114,2.14836-0.43173,2.78949,0.46773
	l16.58998,23.27428C167.54614,229.79953,167.33673,231.04843,166.43727,231.68958z"/>
<path class="st1" d="M238.29462,191.07211l-4.76726,8.25713c-0.55228,0.95659-1.77547,1.28433-2.73206,0.73206l-18.51318-10.6886
	c-0.95659-0.55229-1.28435-1.77547-0.73206-2.73206l4.76724-8.25713c0.55229-0.95657,1.77547-1.28433,2.73206-0.73204
	l18.5132,10.6886C238.51915,188.89235,238.84689,190.11554,238.29462,191.07211z"/>
<path class="st1" d="M172.88466,152.08299l7.67343,5.65907c0.88896,0.65561,1.07814,1.90773,0.42255,2.79669l-12.68816,17.20451
	c-0.65561,0.88896-1.90773,1.07814-2.79669,0.42255l-7.67343-5.65909c-0.88896-0.65559-1.07814-1.90771-0.42253-2.79668
	l12.68816-17.20451C170.74358,151.61656,171.9957,151.42738,172.88466,152.08299z"/>
<path class="st1" d="M160.96904,69.64424l-6.13766,7.29629c-0.71104,0.84527-1.97269,0.95408-2.81796,0.24303L135.6545,63.42237
	c-0.84528-0.71105-0.95409-1.97269-0.24304-2.81797l6.13768-7.29628c0.71104-0.84527,1.97269-0.95408,2.81796-0.24304
	l16.35892,13.7612C161.57127,67.53732,161.68008,68.79897,160.96904,69.64424z"/>
<path class="st1" d="M514.22528,43.18454l7.5224,5.85839c0.8714,0.67868,1.02771,1.93534,0.349,2.80681l-13.13501,16.86582
	c-0.67868,0.87146-1.93533,1.02773-2.80679,0.34904l-7.52237-5.8584c-0.87149-0.6787-1.02774-1.93534-0.34906-2.8068
	l13.13501-16.86582C512.09717,42.66212,513.35382,42.50584,514.22528,43.18454z"/>
<path class="st1" d="M554.53351,205.7256l-6.74188,6.7419c-0.78107,0.78104-2.04742,0.78104-2.82843,0l-15.11597-15.11597
	c-0.78107-0.78105-0.78107-2.04739,0-2.82843l6.74188-6.7419c0.78107-0.78104,2.04736-0.78105,2.82843,0l15.11597,15.11597
	C555.31458,203.67822,555.31458,204.94456,554.53351,205.7256z"/>
<path class="st1" d="M460.37875,169.77605l-7.80624,5.47441c-0.90436,0.63422-2.15161,0.41522-2.78583-0.48914l-12.27411-17.5023
	c-0.63419-0.90436-0.41522-2.1516,0.48917-2.78581l7.80624-5.47441c0.90436-0.63422,2.15161-0.41522,2.78583,0.48914
	l12.27411,17.5023C461.50211,167.89459,461.28314,169.14183,460.37875,169.77605z"/>
<path class="st1" d="M477.77322,274.34192l-10.57684-8.85184c-0.84708-0.70892-0.95908-1.97028-0.25015-2.81735l18.84351-22.51566
	c0.70892-0.84708,1.97028-0.95908,2.81735-0.25015l10.57684,8.85185c0.84708,0.70891,0.95908,1.97026,0.25015,2.81734
	l-18.84351,22.51566C479.88165,274.93884,478.6203,275.05084,477.77322,274.34192z"/>
<path class="st1" d="M525.06158,281.10995l13.05048,4.46194c1.0451,0.35736,1.60272,1.49429,1.24536,2.53949l-9.49847,27.78149
	c-0.35736,1.0452-1.49432,1.60275-2.53949,1.24542l-13.05048-4.46198c-1.04517-0.35733-1.60278-1.49429-1.24542-2.53946
	l9.49854-27.78152C522.87946,281.31018,524.01642,280.75259,525.06158,281.10995z"/>
<path class="st1" d="M391.37875,219.77599l-7.80627,5.47441c-0.90436,0.63422-2.15158,0.41521-2.7858-0.48914l-12.27411-17.50232
	c-0.63422-0.90434-0.41522-2.1516,0.48914-2.78581l7.80627-5.47441c0.90436-0.63422,2.15161-0.41521,2.7858,0.48914
	l12.27411,17.50232C392.50211,217.89452,392.28311,219.14177,391.37875,219.77599z"/>
<path class="st1" d="M613.37878,330.77615l-7.80621,5.4744c-0.90436,0.63422-2.15161,0.41522-2.78583-0.48914l-12.27411-17.50232
	c-0.63422-0.90436-0.41522-2.15161,0.48914-2.7858l7.80627-5.4744c0.9043-0.63422,2.15155-0.41522,2.78577,0.48914
	l12.27411,17.50232C614.50214,328.89471,614.28314,330.14197,613.37878,330.77615z"/>
<path class="st1" d="M406.67438,177.0929l-11.97168-5.28786c-1.01041-0.44629-1.46768-1.62717-1.02139-2.63756l11.32886-25.64853
	c0.44629-1.01041,1.62717-1.46771,2.63757-1.02141l11.97168,5.28784c1.01041,0.4463,1.46768,1.62717,1.02142,2.63757
	l-11.32889,25.64853C408.86566,177.08188,407.68478,177.53918,406.67438,177.0929z"/>
<path class="st1" d="M251.29086,276.07352l-9.71823-8.76575c-0.82022-0.73984-0.88538-2.00449-0.14555-2.82468l18.78008-20.82066
	c0.73984-0.82022,2.00446-0.88539,2.82468-0.14555l9.71823,8.76576c0.82019,0.73982,0.88538,2.00446,0.14554,2.82468
	l-18.78006,20.82066C253.37572,276.74817,252.11107,276.81335,251.29086,276.07352z"/>
<path class="st1" d="M403.80005,274.9054l-4.94376-12.11783c-0.41724-1.02277,0.07361-2.19006,1.09634-2.60733l25.96164-10.59167
	c1.02274-0.41725,2.19006,0.07358,2.6073,1.09633l4.94376,12.11781c0.41727,1.02277-0.07358,2.19006-1.09631,2.60733
	l-25.96164,10.59167C405.38464,276.41895,404.21732,275.92813,403.80005,274.9054z"/>
<path class="st1" d="M110.00893,311.55646l-9.29457-2.12549c-1.07677-0.24625-1.75005-1.31873-1.50381-2.39554l4.76551-20.83923
	c0.24625-1.07678,1.31876-1.75006,2.39552-1.50381l9.29457,2.12546c1.07677,0.24625,1.75006,1.31876,1.50382,2.39554
	l-4.76552,20.83923C112.15822,311.12943,111.08571,311.80267,110.00893,311.55646z"/>
<path class="st1" d="M329.37869,342.77606l-7.80624,5.47443c-0.90439,0.63422-2.15161,0.41522-2.78583-0.48914l-12.27411-17.50232
	c-0.63422-0.90436-0.41522-2.15158,0.48914-2.7858l7.80627-5.47443c0.90436-0.63422,2.15158-0.41522,2.7858,0.48914
	l12.27411,17.50232C330.50204,340.89462,330.28305,342.14185,329.37869,342.77606z"/>
<path class="st1" d="M18.65757,275.14392l4.04717-8.6329c0.46886-1.00012,1.6597-1.43079,2.65983-0.96191l19.35575,9.0741
	c1.00013,0.46887,1.43079,1.6597,0.96193,2.65982l-4.04716,8.63293c-0.46886,1.00012-1.6597,1.43079-2.65983,0.96191
	l-19.35575-9.0741C18.61936,277.3349,18.1887,276.14404,18.65757,275.14392z"/>
<polygon class="st2" points="439.371,262.25 247.84,262.25 439.371,366.017 "/>
<path class="st2" d="M440,265.39001H191.8481C259.60251,294.0387,368.14059,339.96921,440,370.38159V265.39001z"/>
<path class="st1" d="M440,380.72681v-10.34521c-35.30811-14.94321-79.47171-33.63281-123.3013-52.17801V395.608L440,380.72681z"/>
<path class="st3" d="M316.6987,318.20361c-45.37259-19.198-90.38721-38.2413-124.8506-52.81329H182v146.47437L316.6987,395.608
	V318.20361z"/>
<path class="st3" d="M316.6987,423.2785H438c1.10458,0,2-0.89542,2-2V378.5l-123.3013,14.8812V423.2785z"/>
<path class="st1" d="M316.6987,318.20361V263.2785H182v2.11151h9.8481C226.31149,279.96231,271.3262,299.00562,316.6987,318.20361z"
	/>
<path class="st2" d="M165.8317,290.2785h132.62231c0.34027,0,0.65717-0.173,0.84119-0.4592L317,262.2785H182.54601
	c-0.34027-0.00003-0.65718,0.17297-0.8412,0.4592l-16.71429,26c-0.29868,0.46457-0.1642,1.08328,0.30035,1.38196
	C165.45218,290.22336,165.63991,290.2785,165.8317,290.2785z"/>
<path class="st4" d="M457.23889,290.27841H334.27371c-0.35214,0-0.67834-0.18521-0.8588-0.48761L317,262.27841h124.72629
	c0.35214,0,0.67834,0.18521,0.8588,0.48761l15.5126,26c0.28299,0.47427,0.1279,1.08817-0.34637,1.37115
	C457.59637,290.22961,457.41931,290.27841,457.23889,290.27841z"/>
<path class="st5" d="M348,315.94519h73c0.55228,0,1,0.44772,1,1v45.10141c0,0.55228-0.44772,1-1,1h-73c-0.55228,0-1-0.44772-1-1
	v-45.10141C347,316.39291,347.44772,315.94519,348,315.94519z"/>
<rect x="353.45609" y="323.8287" class="st2" width="18.1235" height="16.2356"/>
<rect x="377.61279" y="323.8287" class="st2" width="36.42239" height="9.06421"/>
<rect x="377.61279" y="338.0466" class="st2" width="36.42239" height="16.67291"/>
<path class="st1" d="M457.37878,360.77612l-7.80627,5.47443c-0.90436,0.63422-2.15161,0.41522-2.78583-0.48914l-12.27408-17.50232
	c-0.63422-0.90436-0.41525-2.15158,0.48914-2.7858l7.80624-5.47443c0.90439-0.63422,2.15161-0.41522,2.78583,0.48914
	l12.27411,17.50232C458.50214,358.89468,458.28314,360.14191,457.37878,360.77612z"/>
<path class="st1" d="M368.57227,274.16641l6.2951,7.16092c0.72928,0.82959,0.64798,2.09329-0.18161,2.82257l-16.05536,14.11417
	c-0.82962,0.72931-2.09329,0.64801-2.8226-0.18161l-6.2951-7.16089c-0.72931-0.82962-0.64798-2.09329,0.18161-2.8226
	l16.05536-14.11417C366.57925,273.25549,367.84296,273.33682,368.57227,274.16641z"/>
<circle class="st6" cx="139.8607" cy="300.13931" r="8.13931"/>
<circle class="st6" cx="430" cy="114.2785" r="6"/>
<path class="st7" d="M316.6987,423.2785V393.25L182,409.50668v11.77179c0,1.10458,0.89543,2,2,2L316.6987,423.2785z"/>
<path class="st5" d="M197,366.25h41c0.55229,0,1,0.44772,1,1v40c0,0.55228-0.44771,1-1,1h-41c-0.55229,0-1-0.44772-1-1v-40
	C196,366.69772,196.44771,366.25,197,366.25z"/>
<rect x="203" y="373.25" class="st3" width="5" height="29"/>
<rect x="211" y="373.25" class="st3" width="5" height="29"/>
<rect x="219" y="373.25" class="st3" width="5" height="29"/>
<rect x="227" y="373.25" class="st3" width="5" height="29"/>
<path class="st8" d="M380.9035,108.8087l6.64828-35.0787c0.22623-1.19276-0.55725-2.34309-1.75-2.5694L284.45001,51.9516
	c-1.19293-0.22636-2.34351,0.55711-2.57001,1.75l-2.48309,13.101l96.47681,68.53911L380.9035,108.8087z"/>
<path class="st9" d="M269.45401,131.0722l45.6908,8.66l55.66061,10.55c1.19263,0.22563,2.34259-0.55759,2.5694-1.75v-0.0006
	L375.9375,135l-96.375-69.15625l-11.85898,62.65935c-0.22607,1.19279,0.55762,2.34302,1.7504,2.56909
	C269.45395,131.07219,269.45398,131.0722,269.45401,131.0722z"/>
<ellipse transform="matrix(0.18622 -0.98251 0.98251 0.18622 165.6783 372.86215)" class="st5" cx="307.92474" cy="86.41611" rx="11.84189" ry="11.8419"/>
<path class="st5" d="M347.76929,110.603c-8.26874-1.55402-13.7121-9.51694-12.15808-17.78568s9.51694-13.7121,17.78568-12.15808
	c8.26874,1.55402,13.7121,9.51694,12.15808,17.78568c-0.2038,1.0845-0.52487,2.14364-0.95749,3.15878
	C361.82501,108.20824,354.80164,111.96416,347.76929,110.603z"/>
<path class="st8" d="M334.6431,32.6684c-2.03864-0.24893-3.71255-1.72937-4.2088-3.7223l-3.11591-12.5142
	c-0.66565-2.65409,0.94629-5.34528,3.60037-6.01095s5.34528,0.94627,6.01096,3.60037
	c0.00131,0.00533,0.00266,0.01065,0.00397,0.01598l3.1163,12.5142c0.65988,2.65747-0.9595,5.34671-3.61697,6.00658
	c-0.58484,0.14522-1.19125,0.18261-1.78952,0.11032H334.6431z"/>
<path class="st8" d="M351.1611,35.1581c-2.71817-0.33347-4.65137-2.80732-4.3179-5.5255
	c0.0611-0.49792,0.19736-0.98368,0.40421-1.4407l5.32651-11.7451c1.12195-2.49571,4.05463-3.60937,6.55032-2.48743
	c2.49573,1.12194,3.60938,4.05462,2.48743,6.55033c-0.00452,0.01005-0.00906,0.02008-0.01364,0.0301l-5.32651,11.7452
	C355.37766,34.2554,353.30905,35.41838,351.1611,35.1581z"/>
<path class="st8" d="M361.52301,46.9288c-2.71667-0.32996-4.65146-2.79973-4.3215-5.51639
	c0.22836-1.88023,1.50858-3.46581,3.29849-4.08521l12.18811-4.2148c2.58768-0.88897,5.40607,0.48811,6.29504,3.07579
	c0.88644,2.58029-0.48016,5.39165-3.05685,6.28851l-12.18829,4.2148C363.02747,46.93863,362.26978,47.01981,361.52301,46.9288z"/>
<path class="st8" d="M349.32239,55.1285c0.88184,0.16729,1.73233-0.41197,1.89963-1.29382
	c0.01178-0.062,0.0199-0.12463,0.02438-0.18758c0.50635-8.01645-5.58179-14.92555-13.59824-15.4319
	c-4.00864-0.2532-7.94348,1.16265-10.87177,3.9119l18.70731,12.2741L349.32239,55.1285z"/>
<path class="st9" d="M324.11292,50.35l22.30374,4.23333L326.77609,42.1267c-1.8045,1.68061-3.15063,3.79361-3.91119,6.1393
	c-0.2691,0.85622,0.20685,1.76849,1.06308,2.03759C323.98865,50.32267,324.05042,50.33817,324.11292,50.35z"/>
<path class="st8" d="M232.7648,116.9c4.23582-2.64277,7.55331-6.52782,9.5-11.1253c0.47124-1.14916-0.07832-2.46276-1.22749-2.934
	c-0.06573-0.02696-0.13272-0.05079-0.20071-0.0714l-2.4865-0.7682l-6.22729-1.9235c-1.04518-0.32464-2.17239,0.14954-2.6712,1.1237
	c-1.10838,2.15185-2.90646,3.86976-5.1066,4.8789l9.95731,9.7739C233.80298,116.22243,233.29047,116.57107,232.7648,116.9z"/>
<path class="st9" d="M374.28259,204.67059l8.9451-28.9568c0.35834-1.16002-0.2915-2.3909-1.45151-2.7493l-126.65509-39.12389
	c-0.33969-0.10202-0.70012-0.11368-1.0457-0.0338c-0.0394,0.0072-0.075,0.0247-0.1136,0.034
	c-0.32118,0.08482-0.62044,0.23752-0.87759,0.4478l-0.0015,0.0006c-0.1404,0.11909-0.26807,0.2524-0.381,0.3978
	c-0.14192,0.18265-0.25336,0.38705-0.33,0.6053l-4.83521,15.6523l-27.5625-8.51399c-1.94469-0.60085-3.14566-2.54684-2.81081-4.5545
	l0.1194-0.715l2.752-16.5c0.6264-0.0066,1.2495-0.04,1.86861-0.0952c0.1727-0.0152,0.3428-0.0433,0.51489-0.0623
	c0.44949-0.05,0.8988-0.1025,1.34309-0.177c0.18179-0.03,0.36079-0.0713,0.5416-0.1055c0.4355-0.0833,0.87-0.17,1.29939-0.2772
	c0.16631-0.0408,0.33-0.09,0.495-0.1343c0.44411-0.12,0.88631-0.2479,1.3224-0.3925c0.14-0.0461,0.27769-0.0971,0.4164-0.1458
	c0.4628-0.163,0.922-0.3365,1.3737-0.5268c0.10609-0.0449,0.21201-0.091,0.31779-0.137
	c0.48366-0.21187,0.96033-0.43853,1.42999-0.68c0.0724-0.03706,0.14439-0.07447,0.216-0.1122
	c0.50618-0.26747,1.00287-0.55214,1.49001-0.854c0.03349-0.0208,0.06709-0.041,0.10049-0.0618
	c0.52467-0.32954,1.6109-1.09421,2.11104-1.46201l-10.53114-9.35789c-1.15169,0.53708-2.38895,0.86723-3.65511,0.9753
	c-0.03999,0.0037-0.07761,0.0147-0.1178,0.0174c-0.56882,0.03723-1.13969,0.02897-1.7072-0.0247
	c-0.09711-0.008-0.192,0.0026-0.28999-0.0086c-5.96133-0.68565-10.23811-6.07409-9.55246-12.03542
	c0.0042-0.03651,0.00858-0.07301,0.01315-0.10948c0.13718-1.08568-0.52611-2.11279-1.5721-2.4344l-1.5975-0.4936l-7.1163-2.198
	c-1.18494-0.3728-2.44774,0.28555-2.82054,1.47049c-0.02129,0.06765-0.03935,0.13626-0.05415,0.20561
	c-2.02948,10.15501,2.55527,20.48767,11.4465,25.797L202.4747,146.3l-0.11909,0.71539
	c-0.33487,2.00766,0.86617,3.95367,2.8109,4.5544L243.67,163.4635l-12.646,40.9393L374.28259,204.67059z"/>
<path class="st10" d="M360.75781,248.23586l13.86719-44.70461l-143.60127,0.6528l0,0l-1.1216,3.63
	c-0.35822,1.16,0.29164,2.39081,1.4516,2.74921l126.65509,39.1239c1.15976,0.35841,2.39047-0.29118,2.74887-1.45093
	C360.75772,248.2361,360.75778,248.23598,360.75781,248.23586z"/>
<circle class="st5" cx="310.88351" cy="116.6361" r="5.6521"/>
</svg>
